# xmcd
#
# Track frame offsets: 
#        150
#        27920
#        43624
#        57536
#        61681
#        89041
#        108816
#        133528
#        152575
#        172519
#        193233
#        212128
#        215082
#        249688
#        272384
#        285217
#
# Disc length: 4015 seconds
#
# Revision: 0
# Processed by: cddbd v1.5.2PL0 Copyright (c) Steve Scherf et al.
# Submitted via: ExactAudioCopy v0.99pb3
#
DISCID=df0fad10
DTITLE=Raoul And The Big Time - Blue Midnight - A Live Tribute To Litt
DTITLE=le Walter
DYEAR=2010
DGENRE=Blues
TTITLE0=Don't Have To Hurt Anymore
TTITLE1=Driftin' Blues
TTITLE2=Crazy Legs
TTITLE3=Ludella Intro
TTITLE4=Ludella
TTITLE5=Just Your Fool
TTITLE6=Sad Hours
TTITLE7=Mellow Down Easy
TTITLE8=Hoochie Coochie Man
TTITLE9=Baby Please Don't Go
TTITLE10=Little Girl
TTITLE11=Just Keep Lovin' Her Intro
TTITLE12=Just Keep Lovin' Her
TTITLE13=Honey Bee
TTITLE14=I Want To Be Loved
TTITLE15=Blue Midnight
EXTD=
EXTT0=
EXTT1=
EXTT2=
EXTT3=
EXTT4=
EXTT5=
EXTT6=
EXTT7=
EXTT8=
EXTT9=
EXTT10=
EXTT11=
EXTT12=
EXTT13=
EXTT14=
EXTT15=
PLAYORDER=
